#!OML:ASF H:\Terrain\Patient Classification 1\Animal2\Wednesday\Animal2.ASF
:FULLY-SPECIFIED
:DEGREES
3704
root 4.78257 17.8272 -6.59596 -180.183 -21.7121 -538.166
lowerback 4.6452 -2.96749 2.45793
upperback -3.93252 -3.77039 3.49469
thorax -6.63133 -1.96238 2.67601
lowerneck 3.68235 9.28413 20.4991
upperneck -1.49541 13.2061 -16.5585
head 1.47005 6.69445 -8.08316
rclavicle -3.96575e-014 7.95139e-016
rhumerus -33.1906 21.4686 -96.2772
rradius 33.9189
rwrist 9.65043
rhand -13.8497 1.47771
rfingers 7.12502
rthumb 12.274 -28.1421
lclavicle -3.96575e-014 7.95139e-016
lhumerus -71.313 -32.8785 116.814
lradius 47.5148
lwrist 55.1067
lhand -31.1144 55.8352
lfingers 7.12502
lthumb -4.39358 85.7697
rfemur -8.27652 -8.56335 27.0932
rtibia 28.7176
rfoot -20.9516 -3.86661
rtoes 15.3035
lfemur -10.2554 13.1575 -15.5229
ltibia 39.5392
lfoot -23.475 6.35539
ltoes -14.5721
3705
root 4.76382 17.854 -6.66677 -179.929 -21.4344 -538.341
lowerback 4.24998 -2.90654 2.39317
upperback -3.99531 -3.7149 3.34375
thorax -6.47658 -1.93617 2.52465
lowerneck 3.67602 9.17307 20.4482
upperneck -1.52371 13.0487 -16.2284
head 1.40457 6.61445 -7.98326
rclavicle -9.34288e-015 2.54444e-014
rhumerus -33.1874 21.2738 -96.5831
rradius 34.7861
rwrist 9.58127
rhand -13.83 1.48296
rfingers 7.12502
rthumb 12.293 -28.1357
lclavicle -9.34288e-015 2.54444e-014
lhumerus -72.539 -32.2493 116.984
lradius 47.6266
lwrist 55.0758
lhand -30.8797 55.8978
lfingers 7.12502
lthumb -4.16696 85.8368
rfemur -7.96768 -8.27091 26.9782
rtibia 28.3334
rfoot -20.319 -4.40673
rtoes 11.2313
lfemur -10.7734 13.032 -15.8415
ltibia 39.162
lfoot -23.8505 5.91462
ltoes -10.2718
3706
root 4.73713 17.8679 -6.73561 -179.698 -21.0103 -538.574
lowerback 3.94479 -2.79134 2.31484
upperback -4.05464 -3.58272 3.21363
thorax -6.36931 -1.87094 2.40233
lowerneck 3.55545 9.10985 20.4324
upperneck -1.37568 12.9498 -16.0552
head 1.43471 6.56211 -7.92312
rclavicle 3.84648e-014 -4.13472e-014
rhumerus -33.2472 21.2499 -96.8422
rradius 35.5478
rwrist 9.36699
rhand -14.0579 1.44267
rfingers 7.12502
rthumb 12.0733 -28.189
lclavicle 3.84648e-014 -4.13472e-014
lhumerus -73.7334 -31.7488 117.321
lradius 47.7388
lwrist 55.1351
lhand -31.1539 56.176
lfingers 7.12502
lthumb -4.43178 86.1097
rfemur -7.6815 -8.24771 26.7231
rtibia 27.935
rfoot -19.6816 -4.66198
rtoes 8.20849
lfemur -11.0605 12.9576 -16.2523
ltibia 38.6048
lfoot -24.1328 5.33064
ltoes -5.72999
3707
root 4.71029 17.9051 -6.79942 -179.346 -20.8187 -538.873
lowerback 3.64958 -2.72972 2.17297
upperback -4.22986 -3.52706 3.08711
thorax -6.38479 -1.84228 2.33409
lowerneck 3.68139 9.04021 20.5484
upperneck -1.36529 12.8852 -16.0736
head 1.41398 6.53569 -7.95891
rclavicle -3.05134e-014 -1.74931e-014
rhumerus -33.3932 21.2271 -97.1123
rradius 36.2441
rwrist 8.97348
rhand -13.9765 1.36143
rfingers 7.12502
rthumb 12.1518 -28.2656
lclavicle -3.05134e-014 -1.74931e-014
lhumerus -75.0442 -31.3169 117.772
lradius 47.9761
lwrist 55.1796
lhand -31.1561 56.1324
lfingers 7.12502
lthumb -4.43383 86.066
rfemur -7.56405 -8.322 26.3739
rtibia 27.6245
rfoot -19.27 -4.40227
rtoes 7.60191
lfemur -11.5573 12.685 -16.799
ltibia 37.8788
lfoot -23.9371 5.81388
ltoes -7.63876
3708
root 4.68701 17.9483 -6.85754 -179.134 -20.5617 -538.789
lowerback 3.34103 -2.61068 2.35153
upperback -4.36423 -3.37786 3.07291
thorax -6.3639 -1.78338 2.19491
lowerneck 3.789 8.93717 20.4197
upperneck -1.4654 12.7507 -15.9023
head 1.32155 6.47072 -7.9039
rclavicle -9.93923e-016 -8.74653e-015
rhumerus -33.4718 20.9457 -97.2154
rradius 36.9419
rwrist 8.65731
rhand -13.54 1.25351
rfingers 7.12502
rthumb 12.5726 -28.3482
lclavicle -9.93923e-016 -8.74653e-015
lhumerus -76.1218 -30.8572 117.939
lradius 48.4051
lwrist 55.1442
lhand -31.1059 56.3781
lfingers 7.12502
lthumb -4.38537 86.3127
rfemur -7.50594 -8.06808 26.444
rtibia 27.4571
rfoot -18.8467 -4.20647
rtoes 7.66173
lfemur -12.0841 12.4071 -16.96
ltibia 37.0071
lfoot -23.9588 6.4751
ltoes -8.43837
3709
root 4.66283 17.9732 -6.91186 -179.207 -20.2289 -538.43
lowerback 3.20958 -2.43858 2.78871
upperback -4.37661 -3.13347 3.13435
thorax -6.32661 -1.68676 1.98825
lowerneck 3.68525 8.83912 19.9464
upperneck -1.50356 12.5702 -15.4411
head 1.23113 6.37363 -7.69384
rclavicle -5.4964e-014 -5.56597e-015
rhumerus -33.4694 20.6459 -97.1543
rradius 37.5259
rwrist 8.439
rhand -13.1573 1.17093
rfingers 7.12502
rthumb 12.9415 -28.4077
lclavicle -5.4964e-014 -5.56597e-015
lhumerus -77.0083 -30.5818 118.092
lradius 48.8246
lwrist 55.3549
lhand -31.0861 56.3137
lfingers 7.12502
lthumb -4.36623 86.2487
rfemur -7.31443 -7.87427 26.7686
rtibia 27.3567
rfoot -18.4356 -4.11567
rtoes 7.82062
lfemur -12.2348 12.0485 -16.7639
ltibia 36.0184
lfoot -24.4294 5.90674
ltoes -2.0567
3710
root 4.63752 18.0006 -6.96454 -179.296 -19.9702 -538.53
lowerback 3.43162 -2.3181 2.77278
upperback -4.47837 -2.96231 3.09362
thorax -6.56571 -1.60309 1.95674
lowerneck 3.73054 8.7381 19.6924
upperneck -1.41118 12.4338 -15.2578
head 1.19749 6.30832 -7.60729
rclavicle -1.47101e-014 3.49861e-014
rhumerus -33.6598 20.6574 -97.2169
rradius 37.867
rwrist 8.24897
rhand -13.075 1.27366
rfingers 7.12502
rthumb 13.0209 -28.3
lclavicle -1.47101e-014 3.49861e-014
lhumerus -77.9808 -30.206 118.359
lradius 49.1627
lwrist 55.6715
lhand -31.0546 56.1428
lfingers 7.12502
lthumb -4.33582 86.0785
rfemur -6.96266 -7.9736 26.5579
rtibia 27.3423
rfoot -17.9281 -3.92615
rtoes 6.58542
lfemur -12.1155 11.5836 -17.0103
ltibia 34.8954
lfoot -24.3374 6.03039
ltoes -3.04458
3711
root 4.60661 18.0435 -7.01829 -178.922 -19.637 -538.957
lowerback 2.99608 -2.20384 2.64134
upperback -4.45726 -2.84146 2.88254
thorax -6.29628 -1.53984 1.77395
lowerneck 3.48452 8.73189 19.7542
upperneck -1.20464 12.3978 -15.3566
head 1.30239 6.2846 -7.63229
rclavicle 3.20043e-014 5.40694e-014
rhumerus -33.4848 20.8781 -97.4136
rradius 38.0556
rwrist 8.19452
rhand -13.1341 1.34143
rfingers 7.12502
rthumb 12.964 -28.2358
lclavicle 3.20043e-014 5.40694e-014
lhumerus -78.6301 -30.0054 118.283
lradius 49.6102
lwrist 56.1002
lhand -30.9207 57.2416
lfingers 7.12502
lthumb -4.20652 87.1798
rfemur -7.07617 -8.13437 25.9874
rtibia 27.4796
rfoot -17.1934 -3.29984
rtoes 5.32035
lfemur -12.3952 11.1665 -17.7418
ltibia 33.6447
lfoot -23.5639 7.23154
ltoes -10.7113
3712
root 4.57254 18.0827 -7.07316 -178.686 -19.3181 -539.304
lowerback 2.60996 -2.05889 2.53457
upperback -4.32602 -2.67116 2.73295
thorax -5.93782 -1.44976 1.63807
lowerneck 2.94061 8.76319 19.703
upperneck -0.893196 12.3611 -15.3886
head 1.47479 6.24946 -7.60067
rclavicle 1.6201e-014 -6.36111e-014
rhumerus -33.2174 20.9727 -97.4046
rradius 38.2812
rwrist 8.26549
rhand -12.9557 1.39438
rfingers 7.12502
rthumb 13.1359 -28.1719
lclavicle 1.6201e-014 -6.36111e-014
lhumerus -79.1997 -30.0875 118.43
lradius 50.1015
lwrist 56.6636
lhand -30.6353 59.3994
lfingers 7.12502
lthumb -3.931 89.3429
rfemur -7.17275 -8.28679 25.4612
rtibia 27.6866
rfoot -16.4422 -2.53019
rtoes 5.62196
lfemur -12.5025 10.6726 -18.3601
ltibia 32.3369
lfoot -23.1871 7.3165
ltoes -12.5293
